<svg width="30" height="30" viewBox="0 0 30 30" fill="none" xmlns="http://www.w3.org/2000/svg">
<rect width="30" height="30" rx="7.33333" fill="#0378FF"/>
<path fill-rule="evenodd" clip-rule="evenodd" d="M22.6666 17.5438V17.7538V18.1239V18.6913V19.1579H21.8596C21.8596 20.4894 20.7701 21.5789 19.4385 21.5789C18.1069 21.5789 17.0175 20.4894 17.0175 19.1579H13.7894C13.7894 20.4894 12.6999 21.5789 11.3683 21.5789C10.0368 21.5789 8.94729 20.4894 8.94729 19.1579H8.54378C7.87799 19.1579 7.33325 18.6131 7.33325 17.9473V9.87715C7.33325 9.21136 7.87799 8.66663 8.54378 8.66663H16.614C17.2797 8.66663 17.8245 9.21136 17.8245 9.87715V11.0877H18.9543C19.2771 11.0877 19.5797 11.2289 19.8017 11.4508L22.3034 13.9728C22.5455 14.1947 22.6666 14.4973 22.6666 14.8201V17.5438ZM10.1578 19.1579C10.1578 19.8236 10.7026 20.3684 11.3683 20.3684C12.0341 20.3684 12.5789 19.8236 12.5789 19.1579C12.5789 18.4921 12.0341 17.9473 11.3683 17.9473C10.7026 17.9473 10.1578 18.4921 10.1578 19.1579ZM18.228 19.1579C18.228 19.8236 18.7727 20.3684 19.4385 20.3684C20.1043 20.3684 20.649 19.8236 20.649 19.1579C20.649 18.4921 20.1043 17.9473 19.4385 17.9473C18.7727 17.9473 18.228 18.4921 18.228 19.1579ZM18.7848 12.2859C18.4475 11.9434 17.8486 12.1731 17.8486 12.6449V15.3333C17.8486 15.6216 18.0914 15.8552 18.391 15.8552H21.0383C21.5146 15.8552 21.7597 15.307 21.4321 14.9743L18.7848 12.2859Z" fill="white"/>
</svg>
