<svg width="24" height="24" viewBox="0 0 31 29" fill="none" xmlns="http://www.w3.org/2000/svg">
<path d="M16.8828 16.2784V21.5776C16.8828 21.9992 16.7177 22.4036 16.4237 22.7017C16.1297 22.9998 15.7309 23.1673 15.3152 23.1673C14.8994 23.1673 14.5006 22.9998 14.2066 22.7017C13.9127 22.4036 13.7475 21.9992 13.7475 21.5776V16.2784C13.7475 15.8567 13.9127 15.4524 14.2066 15.1542C14.5006 14.8561 14.8994 14.6886 15.3152 14.6886C15.7309 14.6886 16.1297 14.8561 16.4237 15.1542C16.7177 15.4524 16.8828 15.8567 16.8828 16.2784ZM30.4458 12.3887L28.6404 26.1667C28.5551 26.8036 28.2451 27.3875 27.7678 27.8103C27.2905 28.2332 26.6783 28.4663 26.0446 28.4666H4.58575C3.95226 28.4661 3.34036 28.233 2.86318 27.8105C2.386 27.388 2.0758 26.8045 1.98995 26.168L0.179288 12.39C0.129897 12.0154 0.160134 11.6343 0.267968 11.2725C0.375803 10.9106 0.558738 10.5764 0.804489 10.2921C1.05024 10.0079 1.35312 9.7803 1.69278 9.62459C2.03244 9.46888 2.40103 9.38867 2.77378 9.38936H7.28737L14.1394 1.45377C14.2865 1.28328 14.4679 1.14665 14.6714 1.05305C14.8748 0.959437 15.0957 0.911011 15.3191 0.911011C15.5425 0.911011 15.7633 0.959437 15.9668 1.05305C16.1702 1.14665 16.3516 1.28328 16.4988 1.45377L23.3429 9.38936H27.8565C28.2286 9.38964 28.5963 9.47051 28.9351 9.62656C29.2739 9.7826 29.5759 10.0102 29.8209 10.2942C30.0659 10.5782 30.2483 10.9119 30.3558 11.2731C30.4634 11.6344 30.4936 12.0147 30.4445 12.3887H30.4458ZM11.4548 9.38936H19.1769L15.3152 4.91416L11.4548 9.38936ZM27.2621 12.5689H3.37081L5.04299 25.287H25.5873L27.2621 12.5689ZM20.5512 16.1207L20.0286 21.4199C19.9874 21.8394 20.1122 22.2584 20.3756 22.5846C20.639 22.9108 21.0193 23.1176 21.433 23.1594C21.4853 23.1594 21.5388 23.1673 21.5911 23.1673C21.9795 23.1667 22.3538 23.0198 22.6415 22.7552C22.9292 22.4906 23.1098 22.1271 23.1483 21.7352L23.6709 16.436C23.6939 16.2269 23.6758 16.0153 23.6175 15.8134C23.5593 15.6115 23.4622 15.4233 23.3317 15.2598C23.2013 15.0962 23.0401 14.9606 22.8576 14.8606C22.675 14.7607 22.4747 14.6985 22.2683 14.6776C22.0619 14.6568 21.8535 14.6777 21.6551 14.7391C21.4567 14.8005 21.2723 14.9013 21.1126 15.0355C20.9529 15.1697 20.821 15.3348 20.7246 15.521C20.6283 15.7073 20.5693 15.9111 20.5512 16.1207ZM10.0844 16.1207C10.0386 15.7049 9.83302 15.3242 9.51227 15.0611C9.19151 14.798 8.78142 14.6737 8.3709 14.7152C7.96039 14.7567 7.58255 14.9606 7.31931 15.2827C7.05607 15.6049 6.92866 16.0192 6.96469 16.436L7.48725 21.7352C7.52577 22.1271 7.70637 22.4906 7.99407 22.7552C8.28177 23.0198 8.65609 23.1667 9.04447 23.1673C9.09542 23.1673 9.14898 23.1673 9.20124 23.1594C9.61492 23.1176 9.99528 22.9108 10.2586 22.5846C10.522 22.2584 10.6468 21.8394 10.6056 21.4199L10.0844 16.1207Z" fill="white"/>
</svg>
